<svg xmlns="http://www.w3.org/2000/svg" width="45.635" height="39.931" viewBox="0 0 45.635 39.931"><path d="M41.357,2.25H29.948A4.279,4.279,0,0,0,25.67,6.528V17.937a4.279,4.279,0,0,0,4.278,4.278h7.131v5.7a5.71,5.71,0,0,1-5.7,5.7h-.713a2.134,2.134,0,0,0-2.139,2.139v4.278a2.134,2.134,0,0,0,2.139,2.139h.713A14.257,14.257,0,0,0,45.635,27.92V6.528A4.279,4.279,0,0,0,41.357,2.25Zm-25.67,0H4.278A4.279,4.279,0,0,0,0,6.528V17.937a4.279,4.279,0,0,0,4.278,4.278h7.131v5.7a5.71,5.71,0,0,1-5.7,5.7H4.991a2.134,2.134,0,0,0-2.139,2.139v4.278a2.134,2.134,0,0,0,2.139,2.139H5.7A14.257,14.257,0,0,0,19.965,27.92V6.528A4.279,4.279,0,0,0,15.687,2.25Z" transform="translate(0 -2.25)"/></svg>