<svg xmlns="http://www.w3.org/2000/svg" width="135.333" height="105.239" viewBox="0 0 135.333 105.239"><path d="M65.871,29.555,22.556,65.23v38.5a3.759,3.759,0,0,0,3.759,3.759l26.327-.068a3.759,3.759,0,0,0,3.74-3.759V81.18a3.759,3.759,0,0,1,3.759-3.759H75.177a3.759,3.759,0,0,1,3.759,3.759v22.469a3.759,3.759,0,0,0,3.759,3.771l26.317.073a3.759,3.759,0,0,0,3.759-3.759V65.2L69.466,29.555A2.864,2.864,0,0,0,65.871,29.555ZM134.291,53.8,114.651,37.614V5.073a2.819,2.819,0,0,0-2.819-2.819H98.675a2.819,2.819,0,0,0-2.819,2.819V22.131L74.822,4.826a11.277,11.277,0,0,0-14.331,0L1.022,53.8a2.819,2.819,0,0,0-.376,3.97l5.991,7.283a2.819,2.819,0,0,0,3.973.383L65.871,19.923a2.864,2.864,0,0,1,3.595,0L124.73,65.439a2.819,2.819,0,0,0,3.97-.376l5.991-7.283a2.819,2.819,0,0,0-.4-3.977Z" transform="translate(0.001 -2.254)" fill="#fff"/></svg>