<svg xmlns="http://www.w3.org/2000/svg" width="45.635" height="39.931" viewBox="0 0 45.635 39.931"><path d="M41.357,22.215H34.226v-5.7a5.71,5.71,0,0,1,5.7-5.7h.713a2.134,2.134,0,0,0,2.139-2.139V4.389A2.134,2.134,0,0,0,40.644,2.25h-.713A14.257,14.257,0,0,0,25.67,16.511V37.9a4.279,4.279,0,0,0,4.278,4.278H41.357A4.279,4.279,0,0,0,45.635,37.9V26.494A4.279,4.279,0,0,0,41.357,22.215Zm-25.67,0H8.557v-5.7a5.71,5.71,0,0,1,5.7-5.7h.713a2.134,2.134,0,0,0,2.139-2.139V4.389A2.134,2.134,0,0,0,14.974,2.25h-.713A14.257,14.257,0,0,0,0,16.511V37.9a4.279,4.279,0,0,0,4.278,4.278H15.687A4.279,4.279,0,0,0,19.965,37.9V26.494A4.279,4.279,0,0,0,15.687,22.215Z" transform="translate(0 -2.25)"/></svg>