<svg xmlns="http://www.w3.org/2000/svg" width="636" height="477.023" viewBox="0 0 636 477.023"><rect width="592.305" height="281.026" transform="translate(0 195.996)" fill="#ff6363"/><rect width="396.462" height="167.183" transform="translate(97.922 309.84)" fill="#f0f0f0"/><rect width="396.462" height="1.592" transform="translate(97.922 320.041)" fill="#3f3d56"/><circle cx="2.851" cy="2.851" r="2.851" transform="translate(102.217 312.543)" fill="#3f3d56"/><circle cx="2.851" cy="2.851" r="2.851" transform="translate(111.992 312.543)" fill="#3f3d56"/><circle cx="2.851" cy="2.851" r="2.851" transform="translate(121.768 312.543)" fill="#3f3d56"/><path d="M513.313,651.159l4.221,8.553,9.438,1.371-6.829,6.657,1.612,9.4-8.442-4.438-8.442,4.438,1.612-9.4-6.829-6.657,9.438-1.371Z" transform="translate(-196.429 -255.99)" fill="#ff6363"/><path d="M575.888,651.159l4.221,8.553,9.438,1.371-6.83,6.657,1.612,9.4-8.442-4.438-8.442,4.438,1.612-9.4-6.829-6.657,9.438-1.371Z" transform="translate(-221.029 -255.99)" fill="#ff6363"/><path d="M638.463,651.159l4.221,8.553,9.438,1.371-6.83,6.657,1.612,9.4-8.442-4.438-8.442,4.438,1.612-9.4-6.829-6.657,9.438-1.371Z" transform="translate(-245.629 -255.99)" fill="#ff6363"/><path d="M701.038,651.159l4.221,8.553,9.438,1.371-6.83,6.657,1.612,9.4-8.442-4.438L692.6,677.14l1.612-9.4-6.829-6.657,9.438-1.371Z" transform="translate(-270.229 -255.99)" fill="#ff6363"/><path d="M763.613,651.159l4.221,8.553,9.438,1.371-6.83,6.657,1.612,9.4-8.442-4.438-8.442,4.438,1.612-9.4-6.829-6.657,9.438-1.371Z" transform="translate(-294.829 -255.99)" fill="#ff6363"/><rect width="154.445" height="97.922" transform="translate(124.989 359.199)" fill="#3f3d56"/><path d="M156.483,322.962,0,430.389V375.354l76.315-52.392Z" transform="translate(0 -126.966)" opacity="0.1"/><path d="M334.453,322.962,0,552.568V497.525L254.285,322.962Z" transform="translate(0 -126.966)" opacity="0.1"/><path d="M218.137,497.579l-10.72-11.493,11.493-10.72,10.72,11.493Zm-9.011-11.433,9.071,9.725,9.725-9.071-9.071-9.725Z" transform="translate(-127.664 -221.461)" fill="#f0f0f0"/><path d="M797.819,489.875H782.1V474.159h15.716Zm-14.507-1.209h13.3v-13.3h-13.3Z" transform="translate(-353.59 -220.986)" fill="#3f3d56"/><circle cx="8.024" cy="8.024" r="8.024" transform="translate(533.578 386.965)" fill="#f0f0f0"/><path d="M953.434,716.007a23.18,23.18,0,1,1,23.18-23.18,23.18,23.18,0,0,1-23.18,23.18Zm0-44.576a21.4,21.4,0,1,0,21.4,21.4,21.4,21.4,0,0,0-21.4-21.4Z" transform="translate(-411.833 -297.839)" fill="#2f2e41"/><path d="M375.688,757.182c3.686,13.624,16.31,22.062,16.31,22.062s6.648-13.651,2.963-27.276-16.31-22.062-16.31-22.062S372,743.558,375.688,757.182Z" transform="translate(-193.379 -321.528)" fill="#fff"/><path d="M368.96,763.113c10.113,9.845,11.349,24.979,11.349,24.979s-15.162-.828-25.275-10.673-11.349-24.979-11.349-24.979S358.846,753.268,368.96,763.113Z" transform="translate(-181.235 -330.387)" fill="#ff6363"/><path d="M418.451,757.182c-3.686,13.624-16.31,22.062-16.31,22.062s-6.649-13.651-2.963-27.276,16.31-22.062,16.31-22.062S422.137,743.558,418.451,757.182Z" transform="translate(-202.614 -321.528)" fill="#fff"/><path d="M415.381,763.113c-10.113,9.845-11.349,24.979-11.349,24.979s15.162-.828,25.275-10.673,11.349-24.979,11.349-24.979S425.495,753.268,415.381,763.113Z" transform="translate(-204.959 -330.387)" fill="#ff6363"/><rect width="62" height="73" transform="translate(452 15)" fill="#f2f2f2"/><path d="M883.293,310.583l-.868-.848a44.366,44.366,0,0,0,8.9-15.567c2.953-8.886,4.4-22.921-5.5-39.315-10.127-16.774-10.583-30.4-9.182-38.873,1.525-9.222,5.414-14.392,5.579-14.607l.964.737c-.039.051-3.894,5.192-5.357,14.14-1.351,8.26-.88,21.554,9.036,37.976,10.151,16.813,8.648,31.237,5.6,40.377A44.694,44.694,0,0,1,883.293,310.583Z" transform="translate(-390.526 -113.746)" fill="#3f3d56"/><path d="M906.389,146.37H819V58.981h87.389Zm-86.176-1.214h84.962V60.195H820.214Z" transform="translate(-368.095 -57.767)" fill="#3f3d56"/><rect width="54" height="1" transform="translate(469 27)" fill="#3f3d56"/><rect width="54" height="1" transform="translate(469 40)" fill="#3f3d56"/><rect width="54" height="2" transform="translate(469 53)" fill="#3f3d56"/><rect width="63" height="73" transform="translate(549 68)" fill="#f2f2f2"/><path d="M1044.292,397.583l-.869-.848a44.369,44.369,0,0,0,8.9-15.567c2.953-8.886,4.4-22.921-5.5-39.315-10.127-16.774-10.583-30.4-9.182-38.873,1.525-9.222,5.414-14.392,5.579-14.607l.964.737c-.039.051-3.894,5.192-5.357,14.14-1.351,8.26-.879,21.554,9.036,37.976,10.151,16.813,8.647,31.237,5.6,40.377A44.686,44.686,0,0,1,1044.292,397.583Z" transform="translate(-453.82 -147.948)" fill="#3f3d56"/><path d="M1067.389,233.37H980V145.981h87.389Zm-86.176-1.214h84.962V147.195H981.214Z" transform="translate(-431.389 -91.97)" fill="#3f3d56"/><rect width="53" height="2" transform="translate(567 79)" fill="#3f3d56"/><rect width="53" height="1" transform="translate(567 93)" fill="#3f3d56"/><rect width="53" height="1" transform="translate(567 106)" fill="#3f3d56"/><rect width="63" height="73" transform="translate(84 14)" fill="#f2f2f2"/><path d="M278.293,308.583l-.869-.848a44.366,44.366,0,0,0,8.9-15.567c2.953-8.886,4.4-22.921-5.5-39.315-10.127-16.774-10.583-30.4-9.182-38.873,1.525-9.222,5.414-14.392,5.579-14.607l.965.737c-.039.051-3.894,5.192-5.357,14.14-1.351,8.26-.879,21.554,9.036,37.976,10.151,16.813,8.648,31.237,5.6,40.377A44.7,44.7,0,0,1,278.293,308.583Z" transform="translate(-152.683 -112.96)" fill="#3f3d56"/><path d="M301.389,144.37H214V56.981h87.389Zm-86.176-1.214h84.962V58.195H215.214Z" transform="translate(-130.252 -56.981)" fill="#3f3d56"/><rect width="53" height="2" transform="translate(102 25)" fill="#3f3d56"/><rect width="53" height="1" transform="translate(102 39)" fill="#3f3d56"/><rect width="53" height="1" transform="translate(102 52)" fill="#3f3d56"/><path d="M460.613,366.159l4.221,8.553,9.438,1.371-6.83,6.657,1.612,9.4-8.442-4.438-8.442,4.438,1.612-9.4-6.829-6.657,9.438-1.371Z" transform="translate(-175.711 -143.948)" fill="#f0f0f0"/><path d="M550.918,105.392h0c14.584,0,26.407,13.121,26.407,29.306v20.564H571l-3.661-7.619.915,7.619H527.6l-3.329-6.926.832,6.926H520.53V139.116C520.53,120.491,534.135,105.392,550.918,105.392Z" transform="translate(-250.758 -76.013)" fill="#2f2e41"/><path d="M618.1,326.777l16.214,6.891,56.343,45.8a16.583,16.583,0,0,1,3.648,8.918c.405,5.269,17.43,32.833,11.35,36.481s-27.969,14.592-29.185,7.3-7.7-38.508-7.7-38.508l-54.316-48.641Z" transform="translate(-287.681 -163.046)" fill="#2f2e41"/><path d="M725.326,489.37l6.891,20.267s-7.3,7.7-3.648,14.187v22.294h5.675l1.621-11.755s6.464,11.607,9.728,11.755c6.844.311,20.4,2.746,20.8-.9s-10.263-7.2-10.263-7.2L744.783,506.8l-4.864-19.051Z" transform="translate(-331.269 -226.329)" fill="#2f2e41"/><path d="M550.6,305.49s-3.648,35.67,6.891,42.156S614.646,374.8,614.646,374.8s-19.862,18.646-15.808,23.1,22.294,16.619,24.726,14.187,29.59-31.617,26.347-40.94-48.236-39.724-48.236-39.724l-5.269-19.051-1.621-15.4L577.76,286.034Z" transform="translate(-262.34 -147.029)" fill="#2f2e41"/><circle cx="16.898" cy="16.898" r="16.898" transform="translate(289.934 41.616)" fill="#ffb9b9"/><path d="M550.932,164.8s.811,15.4-11.755,20.267,31.211,36.481,31.211,36.481V186.288s-5.675-6.08,0-15.4Z" transform="translate(-257.198 -99.37)" fill="#ffb9b9"/><path d="M515.6,284.03l3.243,15.808,9.728,54.316s-8.107,23.1,2.837,22.7,5.675-25.131,5.675-25.131l-5.675-44.993V289.3Z" transform="translate(-248.819 -146.241)" fill="#ffb9b9"/><path d="M626.542,271.339l3.648,14.187,16.619,40.129s11.35,19.051,2.027,18.646-9.323-18.646-9.323-18.646l-19.051-32.428v-18.24Z" transform="translate(-290.044 -141.252)" fill="#ffb9b9"/><path d="M614.149,466.374,600.773,478.94s-9.323-2.027-12.971,8.918-6.08,17.835-6.08,17.835l4.864,2.837,6.08-8.512s3.648,15.4,7.3,16.619,21.889,9.323,20.267,0l-8.918-12.971s-1.216-14.592,2.432-15.809,13.377-13.376,13.377-13.376Z" transform="translate(-274.814 -217.926)" fill="#2f2e41"/><path d="M549.151,326.372s38.1-13.782,40.535-12.566a18.28,18.28,0,0,0,5.709,1.482l-.035-5.535s-12.566-4.459-19.457-1.621-27.969,15.4-27.969,15.4Z" transform="translate(-261.532 -155.344)" fill="#3f3d56"/><path d="M556.554,225.125s-10.944-12.566-14.187-20.267a19.9,19.9,0,0,0-10.52-10.345s-24.339,5.481-23.934,15.209,15.4,24.726,15.4,24.726-2.027,53.911,8.918,53.1a23.475,23.475,0,0,0,4.864-9.728c1.216-5.675,38.913-11.755,38.913-11.755s3.243,5.675,3.648,3.243-3.243-62.018-3.243-62.018l-19.33-12.777Z" transform="translate(-245.796 -111.049)" fill="#d0cde1"/><path d="M508.6,212.66l-.271.152a5.592,5.592,0,0,0-2.855,4.878l0,30.082a5.636,5.636,0,0,1-2.005,4.29c-1.561,1.328-3.009,3.242-.021,4.238,4.864,1.621,23.915,9.728,24.321,6.891s1.216-6.08,0-6.08c-.952,0-6.624-29.067-11.182-41.494a5.593,5.593,0,0,0-7.99-2.956Z" transform="translate(-243.36 -117.902)" fill="#d0cde1"/><path d="M611.779,213.23l5.675,1.621,6.485,27.969s7.7,1.621,5.269,4.459-12.566,10.134-12.566,10.134Z" transform="translate(-286.631 -118.407)" fill="#d0cde1"/><path d="M547.454,115.083a13.849,13.849,0,0,1,10.928-5.576h.518c10,0,18.1,9.045,18.1,20.2H573.65l-.541-4.117-.793,4.117H552.451l-1.664-3.483.416,3.483h-3.908q-2.735,13.585,7.861,27.17H548.5l-3.329-6.967L546,156.88h-12.69l-2.5-16.023C530.814,128.856,537.787,118.68,547.454,115.083Z" transform="translate(-254.801 -77.63)" fill="#2f2e41"/></svg>