<svg xmlns="http://www.w3.org/2000/svg" width="405.738" height="399.055" viewBox="0 0 405.738 399.055"><g transform="translate(0)"><path d="M656.213,217.111a360.369,360.369,0,0,1-3.138,46.321c-.071.539-.15,1.079-.221,1.618H507.777c-.429-.533-.851-1.072-1.26-1.618-1.365-1.806-2.644-3.665-3.821-5.588-5.653-9.265-8.278-20.136-5.75-27.66l.045-.117a13.175,13.175,0,0,1,2.547-4.483c5.822-6.627,17.673-5.594,28.453-.331-9.7-10.5-17.452-23.774-18.1-35.658-.637-11.592,5.38-19.908,11.916-26.984.214-.234.429-.461.643-.689.1-.117.214-.227.318-.344,5.1-5.393,11.052-10.714,19.714-10.123,9.5.65,20.071,8.544,27.5,17.771s12.4,19.714,17.426,29.954,10.48,20.727,18.518,29.453c-10.9-13.625-19.707-29.148-23.014-44.274s-.552-29.687,9.051-36.874a22.554,22.554,0,0,1,9.857-4.041c.416-.071.838-.13,1.267-.182,8.921-1.066,19.6,1.962,28.706,9.291,10.032,8.07,17.023,20.077,20.532,31.494S656.265,206.468,656.213,217.111Z" transform="translate(-360.699 -142.965)" fill="#f2f2f2"/><path d="M562.509,311.972h-2.774q-1.326-.819-2.664-1.618c-.552-.344-1.111-.676-1.67-1.014q-13.849-8.353-27.868-16.016T499.385,278.7a1.163,1.163,0,0,1-.676-1.326.335.335,0,0,1,.046-.1c.13-.247.422-.351.851-.143,1.156.572,2.32,1.144,3.476,1.728q14.181,7.076,28.245,14.866T559.28,310c.195.117.39.24.585.357C560.748,310.893,561.625,311.433,562.509,311.972Z" transform="translate(-361.644 -189.887)" fill="#fff"/><path d="M611.237,275.218h-1.716c-.39-.539-.773-1.079-1.163-1.618q-13.742-19.044-27.478-38.089-22.495-31.178-44.976-62.357a1.1,1.1,0,0,1-.2-.377c-.13-.461.208-.734.643-.689a1.3,1.3,0,0,1,.91.572q12.611,17.485,25.217,34.957l44.749,62.038c.949,1.313,1.9,2.632,2.846,3.944C610.464,274.14,610.854,274.679,611.237,275.218Z" transform="translate(-374.603 -153.134)" fill="#fff"/><path d="M692.543,254.828c-.071,2.891-.247,5.737-.481,8.557L691.925,265h-1.8c.052-.539.1-1.079.149-1.618.358-4.074.6-8.193.617-12.423a173.261,173.261,0,0,0-3.606-34.9,217.464,217.464,0,0,0-10.767-36.224,249.16,249.16,0,0,0-17.485-35.8.96.96,0,0,1-.163-.637c.072-.513.754-.669,1.267-.182a1.48,1.48,0,0,1,.26.325q1.257,2.134,2.469,4.282a249,249,0,0,1,16.744,35.931,216.413,216.413,0,0,1,10.051,36.282A170.938,170.938,0,0,1,692.543,254.828Z" transform="translate(-417.749 -142.918)" fill="#fff"/><path d="M687.841,328.322h-394.4a5.671,5.671,0,0,0-5.666,5.666V601.244a5.671,5.671,0,0,0,5.666,5.666h394.4a5.661,5.661,0,0,0,4.308-1.988,1.318,1.318,0,0,0,.123-.156,5.308,5.308,0,0,0,.812-1.371,5.527,5.527,0,0,0,.429-2.151V333.988A5.672,5.672,0,0,0,687.841,328.322ZM691.9,601.244a4.012,4.012,0,0,1-.669,2.222,4.191,4.191,0,0,1-1.534,1.378,4.02,4.02,0,0,1-1.852.448h-394.4a4.053,4.053,0,0,1-4.048-4.048V333.988a4.053,4.053,0,0,1,4.048-4.048h394.4a4.054,4.054,0,0,1,4.055,4.049Z" transform="translate(-287.775 -207.855)" fill="#3f3d56"/><rect width="404.119" height="1.62" transform="translate(0.807 143.175)" fill="#3f3d56"/><ellipse cx="4.859" cy="4.859" rx="4.859" ry="4.859" transform="translate(9.716 127.755)" fill="#3f3d56"/><ellipse cx="4.859" cy="4.859" rx="4.859" ry="4.859" transform="translate(23.686 127.755)" fill="#3f3d56"/><ellipse cx="4.859" cy="4.859" rx="4.859" ry="4.859" transform="translate(37.656 127.755)" fill="#3f3d56"/><path d="M561.309,556.983c-4.86-3.163-7.277-10.515-6.086-17.239s5.675-12.515,11.051-15.012a17.316,17.316,0,0,1,16.392,1.165c4.93,3.014,11.9,4.665,14.243,10.7,1.8,4.635-.483,14.046-2.9,18.548-2.093,3.891-6.069,5.671-9.805,6.444a29.46,29.46,0,0,1-23.826-5.5Z" transform="translate(-381.343 -276.112)" fill="#2f2e41"/><path d="M264.127,485.259l-3.886,6.7-.513.884-.747,1.3H247.526l.773-1.3,2-3.372,4.665-7.875,5.282,2.112Z" transform="translate(-86.695 -168.677)" fill="#ffb8b8"/><path d="M532.713,627.618l-2.092-1.3-.26-.163,13.131-23.93a8.923,8.923,0,0,1,5.361-4.3,8.82,8.82,0,0,1,4.405-.162,8.673,8.673,0,0,1,2.43.91,8.494,8.494,0,0,1,.9.572,8.673,8.673,0,0,1,2.664,3,8.977,8.977,0,0,1-.273,9.064l-5.061,8.089-4.328,6.92-.812,1.3H532.713Z" transform="translate(-372.74 -302.154)" fill="#2f2e41"/><ellipse cx="15.959" cy="15.959" rx="15.959" ry="15.959" transform="translate(177.752 257.447)" fill="#ffb8b8"/><path d="M590.821,626.57H554.948l.162-.461q-.137-.419-.253-.838c-.084-.292-.156-.591-.221-.884a19.618,19.618,0,0,1,.006-8.252c1.982-9.733,9.889-17.641,9.889-17.641.136-.1.273-.2.409-.3a18.053,18.053,0,0,1,3.8-2.131c5.874-2.437,12.033-1.456,16.172-.2a32.278,32.278,0,0,1,4.217,1.6c.481.227.741.37.741.37l.409,12.482.494,14.944Z" transform="translate(-381.09 -301.106)" fill="#ff6363"/><path d="M623.972,624.411l-2.742-13.944-2.768-14.061a2.937,2.937,0,0,0-2.372-2.32l-5.8-1-5.393-.929a2.9,2.9,0,0,0-2.8,1.072,2.865,2.865,0,0,0-.63,1.78,2.934,2.934,0,0,0,.241,1.163c2.813,6.563,2.866,16.952,2.151,28.238-.032.429-.058.864-.091,1.3h20.461Z" transform="translate(-397.646 -300.247)" fill="#2f2e41"/><path d="M562.648,595.674A2.941,2.941,0,0,0,558,594.063l-2.489,2.261L545.326,605.6a2.823,2.823,0,0,0-.728,1.033c-1.15,2.748-3.392,8.174-6,14.873q-.633,1.638-1.306,3.372c-.156.429-.325.864-.494,1.3h16.79c.136-.435.273-.871.409-1.3.747-2.359,1.475-4.672,2.177-6.92,2.053-6.53,3.9-12.462,5.334-17.153q.594-1.949,1.085-3.6a2.942,2.942,0,0,0,.052-1.533Z" transform="translate(-374.995 -300.717)" fill="#2f2e41"/><path d="M346.568,492.383h1.085l-.149-.364-.4-.936-6.114-14.509-.936.565-7.511,4.542,3.853,9.4.533,1.3h9.636Z" transform="translate(-116.473 -166.919)" fill="#ffb8b8"/><path d="M623,598.668a8.98,8.98,0,0,0-11.247-5.309,8.059,8.059,0,0,0-.825.325,8.867,8.867,0,0,0-3.781,3.2,8.578,8.578,0,0,0-.929,1.8,8.929,8.929,0,0,0,.2,6.868l1.878,4.185,6.718,14.944.585,1.3h13.6l.936-.364,2.43-.936.338-.13Z" transform="translate(-399.1 -300.519)" fill="#2f2e41"/><path d="M601.011,530.525a2.64,2.64,0,0,0,3-1.14,3.8,3.8,0,0,0,.22-3.342,6.975,6.975,0,0,0-2.076-2.738,8.061,8.061,0,0,0-3.65-1.89,4.848,4.848,0,0,0-3.933.865A3.494,3.494,0,0,0,593.389,526a5.153,5.153,0,0,0,2.65,2.6,17.606,17.606,0,0,0,7.172,2.039Z" transform="translate(-394.766 -275.448)" fill="#2f2e41"/><path d="M594.05,553.119c-2.566.354-2.236-.952-3.264-3.329s-2.4-5.2-4.982-5.44c-2.113-.2-3.854,1.492-5.566,2.747-3.051,2.236-7.164,3.33-10.7,1.989s-6-5.557-4.653-9.094a7.76,7.76,0,0,1,4.487-4.242,15.614,15.614,0,0,1,6.252-.869,32.261,32.261,0,0,1,13.556,3.47c2.906,1.477,5.735,3.589,6.837,6.656s1.828,7.378-1.324,8.207Z" transform="translate(-384.701 -280.19)" fill="#2f2e41"/><path d="M602.5,518.162c-1.268-2.207-.221-5.236,1.854-6.711a9.091,9.091,0,0,1,7.335-1.028,14.4,14.4,0,0,1,10.331,10.014c1.051,3.86.426,8.007,1.316,11.907a15.626,15.626,0,0,0,19.637,11.517c2.665-.783,5.374-2.686,5.636-5.451a15.281,15.281,0,0,1-9.05,15.3c-3.434,1.432-7.265,1.526-10.984,1.43A19.654,19.654,0,0,1,621.436,554a12.778,12.778,0,0,1-6.714-7.28,20.226,20.226,0,0,1-.894-10.029c.366-2.617,1.094-5.183,1.3-7.818a10.851,10.851,0,0,0-1.807-7.533c-1.624-2.085-4.728-3.149-7.037-1.865a17.03,17.03,0,0,1-2.685,1.693c-1.009.333-2.438-.252-2.346-1.311Z" transform="translate(-397.567 -271.522)" fill="#2f2e41"/><path d="M770.781,620.034l.123-1.3,3.665-38.128a23.342,23.342,0,0,1,3.853-2.45c7.544-3.8,14.821-1.982,18.758-.409a20.521,20.521,0,0,1,3.015,1.475l2.144,39.511.071,1.3Z" transform="translate(-456.946 -294.57)" fill="#ff6363"/><ellipse cx="15.959" cy="15.959" rx="15.959" ry="15.959" transform="translate(315.038 243.972)" fill="#ffb8b8"/><path d="M799.159,538.934a8.687,8.687,0,0,0-6.592-14.661c-2.207.074-4.286.977-6.392,1.64a21.141,21.141,0,0,1-9.931.894,13.261,13.261,0,0,1-8.457-4.994,9.718,9.718,0,0,1-1.2-9.53c1.61-3.524,5.372-5.466,8.911-7.043a16.288,16.288,0,0,1,4.524-1.486,5.8,5.8,0,0,1,4.5,1.134c.995.855,1.577,2.141,2.659,2.882,1.218.834,2.8.813,4.269.96a16.377,16.377,0,0,1,7.932,29.59Z" transform="translate(-455.214 -269.272)" fill="#2f2e41"/><path d="M768.664,585.265l-2.378-6.6-.148-.411a1.367,1.367,0,0,0-2.044-.674l-2.7,1.8s-17.316,0-18.706,10.39c-.019.162-.045.344-.065.539a.1.1,0,0,1-.007.026c-.175.682-3.443,13.313-6.251,28.908-.078.429-.156.864-.234,1.3h37.627C774.983,604.875,774.3,590.31,768.664,585.265Z" transform="translate(-444.81 -295.076)" fill="#2f2e41"/><path d="M835.53,619.241c-2.053-16-4.99-28.933-4.99-28.933-.026-.195-.052-.377-.072-.539-1.384-10.39-18.7-10.39-18.7-10.39l-2.7-1.8a1.367,1.367,0,0,0-2.045.675l-2.527,7.011c-5.634,5.045-6.319,19.61-5.094,35.275h36.289C835.64,620.105,835.582,619.67,835.53,619.241Z" transform="translate(-466.791 -295.077)" fill="#2f2e41"/><path d="M378.419,585.394l-3.859,36.425-.137,1.3H363.981c.123-.422.247-.858.377-1.3,2.963-10.162,7-25,6.562-28.927-.682-6.134,4.094-8.18,4.094-8.18l.3.058Z" transform="translate(-314.466 -297.655)" fill="#ff6363"/><ellipse cx="15.959" cy="15.959" rx="15.959" ry="15.959" transform="translate(64.834 244.579)" fill="#a0616a"/><path d="M419.684,612.5a26.165,26.165,0,0,0-1.969,4.652c-.189.572-.37,1.169-.539,1.78-.123.422-.234.858-.344,1.3H374.741c.059-.429.11-.864.169-1.3,2.151-16.991,3.892-34.235,4.171-37.049.026-.266.039-.4.039-.4,25.223-13.294,43.631,4.093,43.631,4.093s.026.123.065.364C423.219,588.371,425.272,602.561,419.684,612.5Z" transform="translate(-318.235 -294.771)" fill="#ff6363"/><path d="M439.368,622.232l-2.807-6.017.682-23.859,7.225-1.339.253-.045a19.131,19.131,0,0,1,8.2,9.564c1.4,3.509,4.074,14.061,6.329,23.476.1.435.208.871.312,1.3H440.8l-.6-1.3Z" transform="translate(-339.887 -299.848)" fill="#ff6363"/><path d="M426.625,478.822H334.347a7.475,7.475,0,0,0-7.466,7.466v92.278a7.475,7.475,0,0,0,7.466,7.466h92.278a7.47,7.47,0,0,0,7.466-7.466V486.288a7.47,7.47,0,0,0-7.466-7.466Zm6.166,99.744a6.171,6.171,0,0,1-6.166,6.166H334.347a6.176,6.176,0,0,1-6.166-6.166V486.288a6.176,6.176,0,0,1,6.166-6.166h92.278a6.171,6.171,0,0,1,6.166,6.166Zm-71.226,6.166-.136,1.3h38.641c.11-.442.221-.877.344-1.3Z" transform="translate(-301.472 -260.567)" fill="#3f3d56"/><path d="M617.235,478.822H524.957a7.475,7.475,0,0,0-7.466,7.466v92.278a7.475,7.475,0,0,0,7.466,7.466h92.278a7.47,7.47,0,0,0,7.465-7.466V486.288A7.47,7.47,0,0,0,617.235,478.822Zm6.166,99.744a6.171,6.171,0,0,1-6.166,6.166H524.957a6.176,6.176,0,0,1-6.166-6.166V486.288a6.176,6.176,0,0,1,6.166-6.166h92.278a6.171,6.171,0,0,1,6.166,6.166ZM542,584.732q.117.419.254.838l-.162.461h32.266c.033-.435.059-.871.091-1.3Z" transform="translate(-368.232 -260.567)" fill="#3f3d56"/><path d="M807.855,478.822H715.577a7.47,7.47,0,0,0-7.466,7.466v92.278a7.47,7.47,0,0,0,7.466,7.466h92.278a7.475,7.475,0,0,0,7.466-7.466V486.288a7.475,7.475,0,0,0-7.465-7.466Zm6.166,99.744a6.175,6.175,0,0,1-6.166,6.166H715.577a6.171,6.171,0,0,1-6.166-6.166V486.288a6.171,6.171,0,0,1,6.166-6.166h92.278a6.175,6.175,0,0,1,6.166,6.166Zm-49.979,6.166c-.032.429-.065.864-.1,1.3h28c.052-.429.11-.864.162-1.3Z" transform="translate(-434.996 -260.567)" fill="#3f3d56"/><path d="M646.613,696.218H432.194a5.2,5.2,0,0,1,0-10.4H646.613a5.2,5.2,0,1,1,0,10.4Z" transform="translate(-336.537 -333.069)" fill="#ccc"/><path d="M618.908,431.218H524.694a5.2,5.2,0,1,1,0-10.4h94.214a5.2,5.2,0,0,1,0,10.4Z" transform="translate(-368.934 -240.253)" fill="#ff6363"/><path d="M408.468,545.78a3.153,3.153,0,0,0,4.123.264,28.024,28.024,0,0,0,9.017-10.492c2.239-4.85,2.489-10.8-.211-15.412-2.282-3.9-6.312-6.412-10.328-8.477a18.373,18.373,0,0,0-4.986-1.922,7.107,7.107,0,0,0-5.167.834,4.462,4.462,0,0,0-2.015,4.607,16.793,16.793,0,0,0-7.168-4.812,9.27,9.27,0,0,0-5.474-.4c-2.549.723-4.409,2.987-5.427,5.433a10.866,10.866,0,0,0-.82,5.929,7.243,7.243,0,0,0,3.165,4.961c2.107,1.3,4.8,1.21,7.216.677s4.763-1.459,7.229-1.693,5.214.381,6.715,2.352a10.252,10.252,0,0,1,1.566,4.931l1.234,8.992a10.967,10.967,0,0,0,.981,3.757,2.163,2.163,0,0,0,.35.467Z" transform="translate(-320.043 -271.339)" fill="#2f2e41"/></g></svg>