<svg xmlns="http://www.w3.org/2000/svg" width="296.746" height="229.666" viewBox="0 0 296.746 229.666"><g transform="translate(0 0)"><ellipse cx="15.801" cy="32.24" rx="15.801" ry="32.24" transform="translate(211.364 144.578)" fill="#3f3d56"/><path d="M834.717,673.687c6.328-37.969.064-75.8,0-76.178l-1.231.208c.064.376,6.292,38.009,0,75.765Z" transform="translate(-609.012 -444.098)" fill="#ff6363"/><rect width="1.249" height="16.204" transform="translate(212.663 170.987) rotate(-61.858)" fill="#ff6363"/><rect width="16.204" height="1.249" transform="translate(227.745 181.362) rotate(-28.158)" fill="#ff6363"/><ellipse cx="30.904" cy="63.057" rx="30.904" ry="63.057" transform="translate(234.225 62.736)" fill="#e6e6e6"/><path d="M945.168,521.307c12.361-74.165.125-148.06,0-148.8l-1.231.208c.125.736,12.325,74.432,0,148.384Z" transform="translate(-683.481 -292.397)" fill="#ff6363"/><rect width="1.249" height="31.693" transform="translate(237.049 113.863) rotate(-61.858)" fill="#ff6363"/><rect width="31.693" height="1.249" transform="translate(266.547 135.202) rotate(-28.158)" fill="#ff6363"/><path d="M393.024,605.459H228.642a2.283,2.283,0,0,1-2.28-2.28V499.308a2.283,2.283,0,0,1,2.28-2.28H393.024a2.283,2.283,0,0,1,2.28,2.28v103.87A2.283,2.283,0,0,1,393.024,605.459Z" transform="translate(-199.671 -376.35)" fill="#e6e6e6"/><path d="M277.743,535.666a.978.978,0,0,0-.977.977v81.3a.978.978,0,0,0,.977.977H411.891a.978.978,0,0,0,.977-.977v-81.3a.978.978,0,0,0-.977-.977Z" transform="translate(-233.654 -402.401)" fill="#fff"/><rect width="138.306" height="5.152" transform="translate(41.233 149.053)" fill="#e6e6e6"/><rect width="138.306" height="5.152" transform="translate(41.233 174.241)" fill="#e6e6e6"/><rect width="57.817" height="5.152" transform="translate(61.823 160.502)" fill="#e6e6e6"/><rect width="138.306" height="5.152" transform="translate(41.233 200.859)" fill="#e6e6e6"/><rect width="5.152" height="71.069" transform="translate(59.246 132.939)" fill="#e6e6e6"/><rect width="5.152" height="44.164" transform="translate(155.417 132.939)" fill="#e6e6e6"/><rect width="5.152" height="83.909" transform="translate(116.491 132.939)" fill="#e6e6e6"/><rect width="5.152" height="41.748" transform="translate(87.01 175.099)" fill="#e6e6e6"/><circle cx="6.583" cy="6.583" r="6.583" transform="translate(112.484 170.885)" fill="#ff6363"/><path d="M296.617,703.525H0v-.711H296.746Z" transform="translate(0 -473.859)" fill="#3f3d56"/><circle cx="40.609" cy="40.609" r="40.609" transform="translate(79.247 57.144)" fill="#ff6363"/><path d="M316.03,411.358,303.2,389.442l-12.829-21.916,25.394-.153,25.394-.153L328.595,389.29Z" transform="translate(-195.777 -247.592)" fill="#ff6363"/><circle cx="14.57" cy="14.57" r="14.57" transform="translate(105.612 82.927)" fill="#fff"/><path d="M483.414,126.8s-8.689-2.448-11.26,9.424-.612,17.868-.612,17.868l19.4-2.264S496.448,130.408,483.414,126.8Z" transform="translate(-364.497 -126.589)" fill="#2f2e41"/><path d="M447.312,285.065s-12.746,1.269-10.476,6.415,2.27,5.6,2.27,5.6l11.2,19.978,3.632-3.784s-4.086-8.93-4.086-11.805-4.238-7.87-4.238-7.87l7.416-.605Z" transform="translate(-341.396 -233.438)" fill="#ffb9b9"/><path d="M557.352,302.576l4.238,9.232s3.178,3.178,6.659,15.892,4.238,12.259,4.238,12.259l-5.3,1.059s-5.9-13.773-7.87-14.832-4.389-10.746-4.389-10.746l-6.962-8.778,2.119-4.692Z" transform="translate(-416.508 -244.837)" fill="#ffb9b9"/><path d="M495.824,264.416l6.508,12.108s-8.173-3.784-9.384,4.541l-7.416-5.751s-10.292,3.33-16.5,2.119c0,0,1.816-5.751-4.692-8.324l14.681-1.816-.605-3.178,1.513-3.027Z" transform="translate(-360.125 -217.271)" fill="#2f2e41"/><path d="M474.905,365.965s-4.086-.605-3.027,3.027L474,376.257s-2.724,7.416,1.513,5.751,6.962-11.956,6.962-11.956,1.816-7.87,0-7.87-7.567-1.211-6.962,0S474.905,365.965,474.905,365.965Z" transform="translate(-365.087 -285.07)" fill="#2f2e41"/><path d="M606.42,411.185s-5.3-1.362-6.508.757-.908,9.081-.908,9.232a6.176,6.176,0,0,0,2.422,1.665c.605,0,4.389,6.811,9.535,4.389S606.42,411.185,606.42,411.185Z" transform="translate(-450.894 -318.182)" fill="#2f2e41"/><circle cx="5.903" cy="5.903" r="5.903" transform="translate(110.614 17.669) rotate(-80.783)" fill="#ffb9b9"/><path d="M506.613,169.563s1.211,6.357,2.27,7.265-8.021,2.27-8.021,2.27,1.362-4.389-.3-6.659S506.613,169.563,506.613,169.563Z" transform="translate(-384.384 -155.564)" fill="#ffb9b9"/><path d="M508.539,215.295a53.517,53.517,0,0,1-6.6-.976c-2.546-.475-5.332-1.04-7.53-1.5-2.353-.49-4.035-.857-4.035-.857s-.605,3.784-2.573,3.33c-1.7-.39-6.761-18.085-8.13-22.975a1.7,1.7,0,0,1,.752-1.912l6.957-4.248,1.783.681s3.012-2.328,4.76-2.375,4.775-.5,4.775-.5,3.481.3,4.086,2.876.908,18.616,3.178,21.491S511.415,215.295,508.539,215.295Z" transform="translate(-370.419 -165.274)" fill="#d0cde1"/><path d="M503.368,303.332s0,5.9,3.935,4.995.3-6.357.3-6.357Z" transform="translate(-386.436 -244.836)" fill="#ffb9b9"/><path d="M525.4,305.191s-1.362,6.962-4.238,5.9,0-7.265,0-7.265Z" transform="translate(-397.574 -246.09)" fill="#ffb9b9"/><path d="M535.237,230.745s-1.482,3.535-2.662,6.44c-2.546-.475-5.332-1.04-7.53-1.5a4.331,4.331,0,0,1,.657-1.159c1.059-1.211.454-1.513.454-1.513a6.548,6.548,0,0,1-.151-4.238c-1.816-4.843.908-10.9.908-10.9Z" transform="translate(-401.052 -188.141)" opacity="0.15"/><path d="M524.342,209.114s-2.724,6.054-.908,10.9a6.548,6.548,0,0,0,.151,4.238s.605.3-.454,1.513-1.968,5.449-1.211,6.357-1.059,2.573-.605,3.481-.757,2.119-.757,2.119,4.54.908,5.3,2.27a2.449,2.449,0,0,0,.454-2.27,2.234,2.234,0,0,1,.3-2.422c.454-.757,1.816-2.422,1.968-3.178s4.086-10.14,4.086-10.14l-1.845-17.1Z" transform="translate(-398.027 -179.374)" fill="#d0cde1"/><path d="M480.378,204.872l-.283.051a1.7,1.7,0,0,0-1.4,1.686c.011,1.52.1,4.216.47,7.949a99.205,99.205,0,0,0,3.178,16.043,48.315,48.315,0,0,0,2.422,4.692c1.362,2.27,1.665,1.513,1.362,2.573a1.594,1.594,0,0,0,.454,1.665s2.724-3.027,5.449-1.362a3.372,3.372,0,0,0,.3-1.362c0-.757.454-1.513-.3-1.968s.454-2.422-.757-3.481-1.362-.908-1.211-1.968a4.508,4.508,0,0,0-.3-2.119Z" transform="translate(-369.803 -179.37)" fill="#d0cde1"/><path d="M492.032,142.572s-2.448,6.486-8.445,9.179L482.608,146Z" transform="translate(-372.44 -137.365)" fill="#2f2e41"/><ellipse cx="0.832" cy="1.589" rx="0.832" ry="1.589" transform="translate(122.305 8.929)" fill="#ffb9b9"/></g></svg>